<svg width="30" height="30" viewBox="0 0 30 30" fill="none" xmlns="http://www.w3.org/2000/svg">
<path d="M20.735 9.6558C19.562 8.33673 18.2248 8.98718 17.9149 8.71713C17.5486 8.39785 17.9389 8.18263 18.2951 8.15937C19.6611 8.15322 20.3741 8.28945 21.3394 9.41339C21.4033 9.32509 21.4953 9.24125 21.6088 9.23123C22.0254 9.19455 21.9404 9.77222 21.9526 10.0251C21.9659 10.3037 22.1107 11.2127 21.9088 11.4133C21.7175 11.6035 21.4606 11.4239 21.4141 11.2064C21.3628 10.9663 21.3715 10.3748 21.3837 10.121C20.9597 10.2042 20.5414 10.3655 20.1276 10.4901C20.1763 10.8844 20.6778 12.1374 20.8258 12.5553C20.9278 12.8432 21.0019 13.1424 21.1576 13.4073C23.0611 13.0152 25.0604 13.9393 25.9189 15.7027C26.9397 17.7996 26.1015 20.361 23.9794 21.3764C21.8519 22.3943 19.1882 21.463 18.1806 19.3241C17.0844 16.9972 18.3149 14.6238 20.5259 13.5972C20.4005 13.2144 20.2602 12.8352 20.1276 12.4549L15.6286 16.9842C15.9845 17.786 15.667 18.4828 14.9551 18.942C15.014 19.1095 15.0832 19.274 15.1443 19.4409C15.4024 19.4401 15.6654 19.4323 15.9233 19.445C16.3511 19.466 16.3806 19.9828 15.9527 20.0561C15.6998 20.0994 14.8593 20.1646 14.6785 19.9089C14.5575 19.6706 14.4357 19.3751 14.3623 19.1177C13.5666 19.1728 12.8831 18.6785 12.7343 17.8833H12.1916C11.9822 19.7117 10.715 21.2466 8.90109 21.6945C5.2417 22.5979 2.26993 18.5626 4.29146 15.3017C5.43598 13.4555 7.87107 12.7975 9.81087 13.7224C10.0344 13.829 10.2415 13.9595 10.4517 14.0898C10.8296 13.6269 11.4698 13.0552 11.9066 12.642C11.8341 12.4046 11.7345 12.1766 11.6631 11.9387C11.3143 11.9393 10.6341 11.9807 10.3283 11.8934C9.68191 11.709 9.41531 10.8811 9.88411 10.3684C10.2919 9.92246 11.1953 10.0655 11.7466 10.0643C12.1049 10.0636 12.812 10.0244 13.128 10.0963C13.8406 10.2586 14.1029 11.1646 13.5869 11.6747C13.2418 12.0159 12.7489 11.9412 12.3061 11.9387C12.3702 12.1306 12.4484 12.3198 12.5197 12.5092C14.2571 12.2395 16.0023 12.0079 17.7424 11.7547C18.4081 11.6578 19.1191 11.6033 19.7727 11.4665C19.6815 11.0778 19.192 10.1633 19.6032 9.9739C19.8878 9.84289 20.4076 9.76173 20.735 9.6558ZM10.4857 10.694C10.2241 10.7752 10.1905 11.176 10.446 11.2905C10.596 11.3578 12.6363 11.3557 13.0076 11.3292C13.2951 11.1656 13.3043 10.915 13.0604 10.694C12.2026 10.6922 11.3433 10.6834 10.4857 10.694ZM19.5412 12.1367C18.6506 12.2309 17.7602 12.3785 16.875 12.5128L13.3752 13.0143C13.1618 13.0439 12.949 13.0809 12.7343 13.0995C13.0432 13.9474 13.3423 14.8001 13.6665 15.6421L13.8528 16.1428C14.3753 16.0493 14.8455 16.1417 15.2654 16.4673C16.6052 15.0371 18.0997 13.5717 19.5018 12.2072L19.5159 12.2125L19.4963 12.196C19.5156 12.1789 19.542 12.1655 19.5438 12.1393L19.5412 12.1367ZM12.1297 13.2717C11.8605 13.4994 11.0925 14.2713 10.8964 14.5401C11.6419 15.2545 12.0351 16.1565 12.1916 17.1653C12.2236 17.3587 12.5873 17.2626 12.7343 17.2641C12.8174 16.9092 12.9848 16.631 13.2857 16.4201L12.5193 14.3291C12.4508 14.1387 12.2086 13.3786 12.1297 13.2717ZM7.66997 13.9163C4.30005 14.3057 3.00303 18.3746 5.64114 20.417C7.25161 21.6639 9.58113 21.362 10.8203 19.7422C10.9727 19.543 11.0877 19.3247 11.2273 19.1177C11.3817 18.6954 11.4927 18.3312 11.5626 17.8833H9.43007C9.04025 19.4235 7.19191 19.6717 6.45005 18.3757C5.68735 17.0434 7.03429 15.5052 8.48244 16.076C8.8088 15.6273 9.58634 14.9922 10.0032 14.5401C9.31318 14.1061 8.49415 13.8342 7.66997 13.9163ZM21.8314 13.9466C21.667 13.9624 21.5023 13.9773 21.3394 14.0053C21.4563 14.5662 21.7577 15.3563 21.9542 15.9034C23.4439 15.7991 24.3497 17.513 23.366 18.6434C22.7514 19.3495 21.6753 19.4073 20.9798 18.7875C20.0983 18.0018 20.304 16.6337 21.3394 16.076C21.1563 15.4445 20.9292 14.8221 20.735 14.1931C19.5403 14.6696 18.8204 15.6124 18.4955 16.8168C17.8543 20.0594 21.4768 22.3718 24.1826 20.518C27.1599 18.4782 25.5701 13.7758 21.8314 13.9466ZM10.4517 14.9813C10.0829 15.3184 9.29431 16.0468 8.99402 16.4201C9.23337 16.6682 9.34353 16.9336 9.43007 17.2641H10.115H11.5626C11.5215 16.7117 10.9803 15.2049 10.4517 14.9813ZM22.1256 16.5733C22.8736 18.2728 21.9371 17.775 21.8865 17.6978C21.7701 17.5204 21.6106 16.8999 21.5235 16.6514C21.1024 17.0252 20.9363 17.4691 21.1576 17.997C21.6087 18.8594 22.8354 18.7695 23.104 17.8251C23.2853 17.1877 22.808 16.4809 22.1256 16.5733ZM7.84663 16.5733C6.83982 16.6614 6.53314 17.7906 7.22513 18.3631C7.67624 18.7364 8.30624 18.6237 8.65171 18.1691C8.70632 18.0754 8.75003 17.984 8.79011 17.8833L8.76603 17.8818C8.46632 17.8641 7.48312 18.0488 7.53867 17.5242C7.5798 17.1356 8.46357 17.2657 8.79011 17.2641C8.6574 16.8194 8.29798 16.5805 7.84663 16.5733ZM14.1533 16.7185C12.9968 16.8738 13.1027 18.4245 14.1533 18.5101C14.0813 18.3208 13.998 18.1298 13.9612 17.9301C13.9935 17.8621 14.0235 17.8079 14.0758 17.7525C14.5192 17.4345 14.6343 18.0344 14.7511 18.32C15.5092 17.7982 15.0862 16.6422 14.1533 16.7185Z" fill="#0B3C5D"/>
</svg>
